M48
; DRILL file {KiCad 5.1.2-f72e74a~84~ubuntu18.04.1} date Mon 13 Jan 2020 07:42:13 PM EST
; FORMAT={-:-/ absolute / metric / decimal}
; #@! TF.CreationDate,2020-01-13T19:42:13-05:00
; #@! TF.GenerationSoftware,Kicad,Pcbnew,5.1.2-f72e74a~84~ubuntu18.04.1
; #@! TF.FileFunction,Plated,1,4,PTH
FMAT,2
METRIC
T1C1.000
T2C1.200
T3C1.500
%
G90
G05
T1
X50.546Y53.594
X50.546Y51.054
X50.546Y48.514
X50.546Y45.974
X50.546Y43.434
X50.546Y40.894
X50.546Y38.354
X50.546Y35.814
X50.546Y33.274
X50.546Y30.734
X50.546Y28.194
X50.546Y25.654
X50.546Y23.114
X50.546Y20.574
X65.638Y53.594
X65.638Y51.054
X65.638Y48.514
X65.638Y45.974
X65.638Y43.434
X65.638Y40.894
X65.638Y38.354
X65.638Y35.814
X65.638Y33.274
X65.638Y30.734
X65.638Y28.194
X65.638Y25.654
X65.638Y23.114
X65.638Y20.574
X26.924Y13.462
X29.464Y13.462
X32.004Y13.462
X34.544Y13.462
X37.084Y13.462
X39.624Y13.462
X42.164Y13.462
X40.894Y60.198
X43.434Y60.198
X99.804Y62.558
X99.804Y60.018
X99.804Y57.478
X99.804Y54.938
X99.804Y52.398
X74.404Y62.602
X74.404Y60.062
X74.404Y57.522
X74.404Y54.982
X74.404Y52.442
X74.404Y49.902
X74.404Y47.362
X74.404Y44.822
X74.404Y42.282
X27.204Y49.782
X27.204Y47.242
X27.204Y44.702
X27.204Y42.162
X27.204Y39.622
T2
X13.404Y37.182
X13.404Y33.682
X13.404Y30.182
X13.504Y52.482
X13.504Y48.982
X13.504Y45.482
X19.558Y30.226
X32.258Y30.226
X25.71Y67.627
X29.21Y67.627
X13.704Y21.082
X13.704Y17.582
X13.704Y14.082
T3
X19.604Y57.782
X19.804Y45.482
X25.654Y25.654
X32.004Y19.304
X39.878Y33.782
X39.878Y19.05
T0
M30
