G04 #@! TF.GenerationSoftware,KiCad,Pcbnew,5.1.2-f72e74a~84~ubuntu18.04.1*
G04 #@! TF.CreationDate,2020-01-13T19:42:10-05:00*
G04 #@! TF.ProjectId,ib4,6962342e-6b69-4636-9164-5f7063625858,rev?*
G04 #@! TF.SameCoordinates,PX60e4b0PY4775750*
G04 #@! TF.FileFunction,Copper,L4,Bot*
G04 #@! TF.FilePolarity,Positive*
%FSLAX46Y46*%
G04 Gerber Fmt 4.6, Leading zero omitted, Abs format (unit mm)*
G04 Created by KiCad (PCBNEW 5.1.2-f72e74a~84~ubuntu18.04.1) date 2020-01-13 19:42:10*
%MOMM*%
%LPD*%
G04 APERTURE LIST*
%ADD10R,1.700000X1.700000*%
%ADD11O,1.700000X1.700000*%
%ADD12R,2.400000X2.400000*%
%ADD13C,2.400000*%
%ADD14O,2.400000X2.400000*%
%ADD15C,3.000000*%
%ADD16C,1.700000*%
G04 APERTURE END LIST*
D10*
X26924000Y13462000D03*
D11*
X29464000Y13462000D03*
X32004000Y13462000D03*
X34544000Y13462000D03*
X37084000Y13462000D03*
X39624000Y13462000D03*
X42164000Y13462000D03*
D10*
X43434000Y60198000D03*
D11*
X40894000Y60198000D03*
D12*
X13704000Y21082000D03*
D13*
X13704000Y17582000D03*
X13704000Y14082000D03*
X13404000Y30182000D03*
X13404000Y33682000D03*
D12*
X13404000Y37182000D03*
X13504000Y52482000D03*
D13*
X13504000Y48982000D03*
X13504000Y45482000D03*
D10*
X27204000Y49782000D03*
D11*
X27204000Y47242000D03*
X27204000Y44702000D03*
X27204000Y42162000D03*
X27204000Y39622000D03*
D10*
X74404000Y62602000D03*
D11*
X74404000Y60062000D03*
X74404000Y57522000D03*
X74404000Y54982000D03*
X74404000Y52442000D03*
X74404000Y49902000D03*
X74404000Y47362000D03*
X74404000Y44822000D03*
X74404000Y42282000D03*
D13*
X25710000Y67627500D03*
D12*
X29210000Y67627500D03*
D13*
X19558000Y30226000D03*
D14*
X32258000Y30226000D03*
D11*
X50546000Y53594000D03*
X50546000Y51054000D03*
X50546000Y48514000D03*
X50546000Y45974000D03*
X50546000Y43434000D03*
X50546000Y40894000D03*
X50546000Y38354000D03*
X50546000Y35814000D03*
X50546000Y33274000D03*
X50546000Y30734000D03*
X50546000Y28194000D03*
X50546000Y25654000D03*
X50546000Y23114000D03*
D10*
X50546000Y20574000D03*
D11*
X65637800Y20574000D03*
X65637800Y23114000D03*
X65637800Y25654000D03*
X65637800Y28194000D03*
X65637800Y30734000D03*
X65637800Y33274000D03*
X65637800Y35814000D03*
X65637800Y38354000D03*
X65637800Y40894000D03*
X65637800Y43434000D03*
X65637800Y45974000D03*
X65637800Y48514000D03*
X65637800Y51054000D03*
D10*
X65637800Y53594000D03*
X99804000Y62558000D03*
D11*
X99804000Y60018000D03*
X99804000Y57478000D03*
X99804000Y54938000D03*
X99804000Y52398000D03*
D15*
X19604000Y57782000D03*
X19804000Y45482000D03*
X32004000Y19304000D03*
X25654000Y25654000D03*
X39878000Y33782000D03*
X39878000Y19050000D03*
D16*
X50334300Y35803100D02*
X50397800Y35866600D01*
X24744000Y47242000D02*
X27204000Y47242000D01*
X23304000Y48682000D02*
X24744000Y47242000D01*
X27384000Y47422000D02*
X27204000Y47242000D01*
X13504000Y52482000D02*
X22104000Y52482000D01*
X22104000Y52482000D02*
X23304000Y51282000D01*
X23304000Y53282000D02*
X23304000Y51282000D01*
X23304000Y51282000D02*
X23304000Y48682000D01*
X67739400Y48566600D02*
X65637800Y48566600D01*
X69199400Y51106600D02*
X65637800Y51106600D01*
X70354000Y49952000D02*
X69199400Y51106600D01*
X64452407Y46026600D02*
X65637800Y46026600D01*
X62654000Y47352000D02*
X63904000Y46102000D01*
X68688938Y57102000D02*
X64154000Y57102000D01*
X63904000Y46102000D02*
X64377007Y46102000D01*
X64154000Y57102000D02*
X62654000Y55602000D01*
X64377007Y46102000D02*
X64452407Y46026600D01*
X62654000Y55602000D02*
X62654000Y47352000D01*
X13704000Y14082000D02*
X8304000Y14082000D01*
X8304000Y14082000D02*
X5204000Y17182000D01*
X5204000Y17182000D02*
X5204000Y27582000D01*
X5204000Y27582000D02*
X7904000Y30282000D01*
X8004000Y30182000D02*
X13404000Y30182000D01*
X7904000Y30282000D02*
X8004000Y30182000D01*
X5204000Y27582000D02*
X5204000Y53882000D01*
X5204000Y53882000D02*
X5204000Y54782000D01*
X5204000Y53882000D02*
X5204000Y54982000D01*
X5204000Y54982000D02*
X8004000Y57782000D01*
X8004000Y57782000D02*
X19604000Y57782000D01*
X13504000Y45482000D02*
X19804000Y45482000D01*
X50397800Y20626600D02*
X50397800Y20495800D01*
X50334300Y30723100D02*
X50397800Y30786600D01*
X9204000Y48982000D02*
X13504000Y48982000D01*
X8204000Y48082000D02*
X8304000Y48082000D01*
X8204000Y35982000D02*
X8204000Y48082000D01*
X13404000Y33682000D02*
X10504000Y33682000D01*
X8304000Y48082000D02*
X9204000Y48982000D01*
X10504000Y33682000D02*
X8204000Y35982000D01*
X32004000Y19304000D02*
X31750000Y19558000D01*
X32004000Y13462000D02*
X32004000Y19304000D01*
X35358600Y23166600D02*
X31750000Y19558000D01*
X50397800Y23166600D02*
X35358600Y23166600D01*
X41910000Y63246000D02*
X67818000Y63246000D01*
X40894000Y60198000D02*
X40894000Y62230000D01*
X40894000Y62230000D02*
X41910000Y63246000D01*
X23304000Y37482000D02*
X23304000Y53282000D01*
X13404000Y37182000D02*
X23004000Y37182000D01*
X23004000Y37182000D02*
X23304000Y37482000D01*
X23270000Y37182000D02*
X23004000Y37182000D01*
X27178000Y27178000D02*
X27178000Y33274000D01*
X27178000Y33274000D02*
X23270000Y37182000D01*
X13704000Y21082000D02*
X21082000Y21082000D01*
X21082000Y21082000D02*
X25654000Y25654000D01*
X25654000Y25654000D02*
X27178000Y27178000D01*
X67818000Y63246000D02*
X71002000Y60062000D01*
X68954000Y47352000D02*
X67739400Y48566600D01*
X73201919Y47362000D02*
X73191919Y47352000D01*
X73191919Y47352000D02*
X68954000Y47352000D01*
X74404000Y47362000D02*
X73201919Y47362000D01*
X73151919Y49952000D02*
X70354000Y49952000D01*
X73201919Y49902000D02*
X73151919Y49952000D01*
X74404000Y49902000D02*
X73201919Y49902000D01*
X73348938Y52442000D02*
X68688938Y57102000D01*
X74404000Y52442000D02*
X73348938Y52442000D01*
X14324000Y13462000D02*
X13704000Y14082000D01*
X26924000Y13462000D02*
X14324000Y13462000D01*
X26924000Y8128000D02*
X26924000Y13462000D01*
X31242000Y3810000D02*
X26924000Y8128000D01*
X68834000Y22098000D02*
X68834000Y15494000D01*
X67765400Y23166600D02*
X68834000Y22098000D01*
X57150000Y3810000D02*
X31242000Y3810000D01*
X68834000Y15494000D02*
X57150000Y3810000D01*
X66892481Y23166600D02*
X67765400Y23166600D01*
X66839881Y23114000D02*
X66892481Y23166600D01*
X65637800Y23114000D02*
X66839881Y23114000D01*
X19514000Y30182000D02*
X19558000Y30226000D01*
X13404000Y30182000D02*
X19514000Y30182000D01*
X80772000Y36173200D02*
X78740000Y34141200D01*
X78740000Y34141200D02*
X67765400Y23166600D01*
X71002000Y60062000D02*
X74404000Y60062000D01*
X23304000Y59880000D02*
X23304000Y53282000D01*
X28257500Y72453500D02*
X24003000Y72453500D01*
X20574000Y69024500D02*
X20574000Y62610000D01*
X29210000Y71501000D02*
X28257500Y72453500D01*
X29210000Y67627500D02*
X29210000Y71501000D01*
X24003000Y72453500D02*
X20574000Y69024500D01*
X20574000Y62610000D02*
X23304000Y59880000D01*
X29210000Y64727500D02*
X29210000Y67627500D01*
X33739500Y60198000D02*
X29210000Y64727500D01*
X40894000Y60198000D02*
X33739500Y60198000D01*
X74404000Y62602000D02*
X76971000Y62602000D01*
X76971000Y62602000D02*
X80772000Y58801000D01*
X80772000Y58801000D02*
X80772000Y36173200D01*
X27204000Y44702000D02*
X31494000Y44702000D01*
X31494000Y44702000D02*
X32510000Y44702000D01*
X43434000Y51054000D02*
X43434000Y60198000D01*
X31494000Y44702000D02*
X37082000Y44702000D01*
X37082000Y44702000D02*
X43434000Y51054000D01*
X25710000Y65930444D02*
X25781000Y65859444D01*
X25710000Y67627500D02*
X25710000Y65930444D01*
X25781000Y65859444D02*
X25781000Y63754000D01*
X27204000Y62331000D02*
X27204000Y49782000D01*
X25781000Y63754000D02*
X27204000Y62331000D01*
X13704000Y17582000D02*
X24186000Y17582000D01*
X24186000Y17582000D02*
X32258000Y25654000D01*
X50345200Y30734000D02*
X50397800Y30786600D01*
X49212407Y30786600D02*
X49159807Y30734000D01*
X50397800Y30786600D02*
X49212407Y30786600D01*
X49159807Y30734000D02*
X47498000Y30734000D01*
X47498000Y30734000D02*
X42418000Y25654000D01*
X33457999Y29026001D02*
X36830000Y25654000D01*
X32258000Y30226000D02*
X33457999Y29026001D01*
X42418000Y25654000D02*
X36830000Y25654000D01*
X36830000Y25654000D02*
X32258000Y25654000D01*
X21690000Y33682000D02*
X17626000Y33682000D01*
X23114000Y32258000D02*
X21690000Y33682000D01*
X17626000Y33682000D02*
X13404000Y33682000D01*
X19558000Y26670000D02*
X21590000Y26670000D01*
X10404000Y17582000D02*
X8804000Y19182000D01*
X23114000Y28194000D02*
X23114000Y32258000D01*
X8804000Y19182000D02*
X8804000Y22982000D01*
X13704000Y17582000D02*
X10404000Y17582000D01*
X11404000Y25582000D02*
X18470000Y25582000D01*
X21590000Y26670000D02*
X23114000Y28194000D01*
X8804000Y22982000D02*
X11404000Y25582000D01*
X18470000Y25582000D02*
X19558000Y26670000D01*
X48058600Y40946600D02*
X50397800Y40946600D01*
X45974000Y38862000D02*
X48058600Y40946600D01*
X32766000Y35306000D02*
X37846000Y30226000D01*
X37846000Y30226000D02*
X42418000Y30226000D01*
X42418000Y30226000D02*
X45974000Y33782000D01*
X28450000Y39622000D02*
X37846000Y30226000D01*
X27204000Y39622000D02*
X28450000Y39622000D01*
X45974000Y33782000D02*
X45974000Y38862000D01*
X73068600Y40946600D02*
X65637800Y40946600D01*
X74404000Y42282000D02*
X73068600Y40946600D01*
X65729300Y43578100D02*
X65637800Y43486600D01*
X65637800Y43486600D02*
X71038600Y43486600D01*
X71038600Y43486600D02*
X72374000Y44822000D01*
X72374000Y44822000D02*
X74404000Y44822000D01*
X34544000Y9652000D02*
X34544000Y13462000D01*
X50038000Y6858000D02*
X37338000Y6858000D01*
X37338000Y6858000D02*
X34544000Y9652000D01*
X59182000Y16002000D02*
X50038000Y6858000D01*
X59182000Y50038000D02*
X59182000Y16002000D01*
X47953400Y46026600D02*
X46990000Y46990000D01*
X50397800Y46026600D02*
X47953400Y46026600D01*
X46990000Y46990000D02*
X46990000Y55118000D01*
X46990000Y55118000D02*
X48514000Y56642000D01*
X48514000Y56642000D02*
X52578000Y56642000D01*
X52578000Y56642000D02*
X59182000Y50038000D01*
X50397800Y48566600D02*
X53033400Y48566600D01*
X53033400Y48566600D02*
X54102000Y47498000D01*
X55626000Y45974000D02*
X53033400Y48566600D01*
X55626000Y17018000D02*
X55626000Y45974000D01*
X48514000Y9906000D02*
X55626000Y17018000D01*
X40894000Y9906000D02*
X48514000Y9906000D01*
X39624000Y13462000D02*
X39624000Y11176000D01*
X39624000Y11176000D02*
X40894000Y9906000D01*
X48313200Y18542000D02*
X50397800Y20626600D01*
X44450000Y18542000D02*
X48313200Y18542000D01*
X27204000Y42162000D02*
X31498000Y42162000D01*
X44450000Y18542000D02*
X40386000Y18542000D01*
X40386000Y18542000D02*
X39878000Y19050000D01*
X33619320Y42162000D02*
X31498000Y42162000D01*
X39878000Y35903320D02*
X33619320Y42162000D01*
X39878000Y33782000D02*
X39878000Y35903320D01*
X65637800Y38354000D02*
X76200000Y38354000D01*
X76590000Y54982000D02*
X74404000Y54982000D01*
X77851000Y53721000D02*
X76590000Y54982000D01*
X76200000Y38354000D02*
X77851000Y40005000D01*
X77851000Y40005000D02*
X77851000Y53721000D01*
M02*
